<svg xmlns="http://www.w3.org/2000/svg" viewBox="0 0 506.29 833.4"><defs><style>.cls-1,.cls-2{fill:none;stroke-miterlimit:10;stroke-width:74px;}.cls-1{stroke:#eb3635;}.cls-2{stroke:#000010;}.cls-3{fill:#4572bd;}</style></defs><g id="Warstwa_2" data-name="Warstwa 2"><path class="cls-1" d="M287.54,86.36c-4.94,34.57-14.12,131.13,38.5,235.5,54.95,109,143.4,159.32,174,175l-.54-.36c30.6,15.68,119,66,174,175C726.12,775.88,716.94,872.43,712,907" transform="translate(-246.63 -80.18)"/><path class="cls-2" d="M457,539c-22,39-81,39.25-130.5,132.63S282.55,876.38,288,907.13" transform="translate(-246.63 -80.18)"/><path class="cls-2" d="M542.9,454.76c22-39,81-39.26,130.5-132.63s44-204.75,38.5-235.5" transform="translate(-246.63 -80.18)"/><circle class="cls-3" cx="253.37" cy="694.82" r="107"/><circle class="cls-3" cx="253.37" cy="141.82" r="107"/></g></svg>